<svg class="svg-logo-logo" width="59" height="59" viewBox="0 0 59 59" version="1.1" xmlns="http://www.w3.org/2000/svg" xmlns:xlink="http://www.w3.org/1999/xlink"><title>Group</title><defs><path id="path-1" d="M0 0h58.061v57.819H0z"/></defs><g id="Symbols" stroke="none" stroke-width="1" fill="none" fill-rule="evenodd"><g id="WEB-/-Menu" transform="translate(-41 -25)"><g id="hr_logo_mini_cmyk_rood" transform="rotate(-90 62.5 22)"><g id="Group-3" transform="translate(.5 .5)"><g id="Group" transform="rotate(90 29.027 29.33)"><mask id="mask-2" fill="#fff"><use xlink:href="#path-1"/></mask><path d="M9.784 58.127H58.06V9.791S58.061 0 48.277 0H9.78S0 0 0 9.79v38.552s0 9.785 9.784 9.785" id="Fill-1" fill="#C11E48" mask="url(#mask-2)"/><path d="M40.756 29.14c1.842-2.106 3.155-4.412 3.704-6.574.313-1.202.39-2.368.185-3.432-.898-4.695-6.895-5.589-13.41-2.034l-.894-4.628-6.9 3.811 1.118 5.805c.719-.452 1.427-.735 2.078-.801 2.196-.232 2.812 2.167 1.39 5.347a13.939 13.939 0 01-1.99 3.128l1.308 6.806.005.01.016.119c1 4.607 7.003 5.455 13.508 1.854 6.439-3.56 10.959-10.135 10.297-14.84-.262 1.89-2.119 4.207-4.607 5.573-2.642 1.46-5.084 1.362-5.803-.123 0-.01-.005-.01-.005-.02" id="Fill-4" fill="#FFFFFE" mask="url(#mask-2)"/><path d="M21.46 32.813c-2.195.216-2.816-2.183-1.39-5.368a13.817 13.817 0 012.299-3.467l-1.237-6.416-13.57 7.505 3.92 20.408 13.57-7.494-1.19-6.205c-.826.575-1.657.96-2.401 1.037" id="Fill-5" fill="#FFFFFE" mask="url(#mask-2)"/></g></g></g></g></g></svg>